<svg width="145" height="74" viewBox="0 0 145 74" fill="none" xmlns="http://www.w3.org/2000/svg">
<path d="M6.05802 33.6967H0V0H6.05802V33.6967Z" fill="black"/>
<path d="M54.471 33.6967H46.1489L36.6029 24.568H24.1809V18.5026H41.1311C42.8445 18.5026 44.2927 17.8899 45.4758 16.6646C46.6996 15.3984 47.3116 13.928 47.3116 12.2534C47.3116 10.5379 46.6996 9.08791 45.4758 7.90342C44.2927 6.67808 42.8445 6.06541 41.1311 6.06541H20.9989V33.6967H14.8797V0H41.1311C43.4156 0 45.4758 0.551401 47.3116 1.6542C49.1473 2.75701 50.6159 4.24783 51.7174 6.12668C52.8188 7.96468 53.3696 10.0069 53.3696 12.2534C53.3696 14.0914 52.982 15.8273 52.2069 17.461C51.4726 19.054 50.4323 20.4427 49.0861 21.6272C47.7807 22.7708 46.2713 23.5877 44.5579 24.0779L54.471 33.6967Z" fill="black"/>
<path d="M100.307 16.7871C100.307 19.8913 99.6541 22.73 98.3486 25.3032C97.084 27.8355 95.289 29.8778 92.9637 31.4299C90.6384 32.9411 87.9256 33.6967 84.8252 33.6967H74.1778C71.0774 33.6967 68.3441 32.9411 65.978 31.4299C63.6527 29.8778 61.8373 27.8355 60.5319 25.3032C59.2673 22.73 58.635 19.8913 58.635 16.7871C58.635 13.6829 59.2673 10.8646 60.5319 8.33228C61.8373 5.79992 63.6527 3.77812 65.978 2.26687C68.3441 0.755624 71.0774 0 74.1778 0H84.8252C87.9256 0 90.6384 0.755624 92.9637 2.26687C95.289 3.77812 97.084 5.79992 98.3486 8.33228C99.6541 10.8646 100.307 13.6829 100.307 16.7871ZM94.1876 16.7871C94.1876 14.8266 93.8204 13.0294 93.0861 11.3956C92.3518 9.76184 91.2708 8.47524 89.8429 7.53582C88.4559 6.55555 86.7833 6.06541 84.8252 6.06541H74.1778C72.2196 6.06541 70.5266 6.55555 69.0988 7.53582C67.7118 8.47524 66.6307 9.76184 65.8556 11.3956C65.1213 13.0294 64.7542 14.8266 64.7542 16.7871C64.7542 18.7476 65.1213 20.5448 65.8556 22.1786C66.6307 23.8124 67.7118 25.1194 69.0988 26.0997C70.5266 27.0799 72.2196 27.5701 74.1778 27.5701H84.8252C86.7833 27.5701 88.4559 27.0799 89.8429 26.0997C91.2708 25.1194 92.3518 23.8124 93.0861 22.1786C93.8204 20.5448 94.1876 18.7476 94.1876 16.7871Z" fill="black"/>
<path d="M137.988 33.6967C137.988 31.001 137.458 28.4278 136.397 25.9771C135.377 23.4856 133.99 21.1779 132.236 19.054C130.482 16.9301 128.524 15.0104 126.362 13.2949C124.2 11.5794 121.976 10.1499 119.692 9.00622C117.448 7.86257 115.286 7.04568 113.205 6.55555V33.6967H107.086V0H110.391V0.061266C112.594 0.1838 114.919 0.673935 117.366 1.53167C119.855 2.34856 122.343 3.49221 124.832 4.96261C127.32 6.43301 129.687 8.14848 131.93 10.109C134.215 12.0696 136.234 14.2547 137.988 16.6646V0H144.107V33.6967H137.988Z" fill="black"/>
<path d="M32.4804 52.3492C32.4804 54.5234 32.0157 56.5366 31.0862 58.3887C30.1567 60.2408 28.9002 61.7306 27.3166 62.858C25.7675 63.9451 24.0462 64.4886 22.1528 64.4886H7.79738V58.5095H22.1528C23.5987 58.5095 24.8208 57.9055 25.8191 56.6976C26.8519 55.4495 27.3683 54 27.3683 52.3492C27.3683 50.6581 26.8519 49.2287 25.8191 48.0611C24.8208 46.8532 23.5987 46.2492 22.1528 46.2492H5.11218V73.4876H0V40.2701H22.1528C24.0462 40.2701 25.7675 40.8136 27.3166 41.9008C28.9002 42.9879 30.1567 44.4575 31.0862 46.3096C32.0157 48.1215 32.4804 50.1347 32.4804 52.3492Z" fill="#13DC94"/>
<path d="M69.6963 73.4876H64.5325V64.3678H44.6517V58.2075H64.5325V46.2492H51.1065C49.4197 46.2492 47.8877 46.7324 46.5107 47.6987C45.1337 48.665 44.0321 49.9535 43.2059 51.564C42.3797 53.1343 41.9666 54.9059 41.9666 56.8788V73.4876H36.7511V56.8788C36.7511 54.5838 37.1126 52.4297 37.8355 50.4165C38.5928 48.3631 39.6256 46.5713 40.9338 45.0413C42.2764 43.5113 43.8083 42.3235 45.5296 41.478C47.2853 40.5922 49.1443 40.1493 51.1065 40.1493H69.6963V73.4876Z" fill="#13DC94"/>
<path d="M104.316 73.4876H77.1548V40.2701H82.3186V67.448H104.316V73.4876Z" fill="#13DC94"/>
<path fill-rule="evenodd" clip-rule="evenodd" d="M107.901 67.2646C124.297 67.2646 137.588 53.8407 137.588 37.2815H143.749C143.749 56.9651 127.39 73.4876 107.901 73.4876V67.2646Z" fill="url(#paint0_linear_212_224)"/>
<defs>
<linearGradient id="paint0_linear_212_224" x1="125.825" y1="37.2815" x2="125.825" y2="73.4876" gradientUnits="userSpaceOnUse">
<stop stop-color="white" stop-opacity="0"/>
<stop offset="1" stop-color="#13DC94"/>
</linearGradient>
</defs>
</svg>
