<svg width="278" height="142" viewBox="0 0 278 142" fill="none" xmlns="http://www.w3.org/2000/svg">
<path d="M11.6866 66.0442H0V0H11.6866V66.0442Z" fill="white"/>
<path d="M105.081 66.0442H89.0267L70.6114 48.1522H46.6479V36.2643H79.3468C82.6521 36.2643 85.4459 35.0635 87.7281 32.6619C90.0891 30.1802 91.2696 27.2983 91.2696 24.0161C91.2696 20.6538 90.0891 17.8119 87.7281 15.4904C85.4459 13.0888 82.6521 11.888 79.3468 11.888H40.5094V66.0442H28.7047V0H79.3468C83.7539 0 87.7282 1.08072 91.2696 3.24217C94.811 5.40362 97.6441 8.32557 99.7689 12.008C101.894 15.6104 102.956 19.6131 102.956 24.0161C102.956 27.6185 102.209 31.0208 100.713 34.2229C99.2967 37.345 97.2899 40.0668 94.6929 42.3884C92.1746 44.6299 89.2628 46.2309 85.9575 47.1916L105.081 66.0442Z" fill="white"/>
<path d="M193.504 32.902C193.504 38.9861 192.244 44.5498 189.726 49.5932C187.286 54.5565 183.824 58.5592 179.338 61.6012C174.852 64.5632 169.619 66.0442 163.638 66.0442H143.098C137.117 66.0442 131.844 64.5632 127.279 61.6012C122.794 58.5592 119.292 54.5565 116.773 49.5932C114.334 44.5498 113.114 38.9861 113.114 32.902C113.114 26.8179 114.334 21.2942 116.773 16.3309C119.292 11.3676 122.794 7.40496 127.279 4.44297C131.844 1.48099 137.117 0 143.098 0H163.638C169.619 0 174.852 1.48099 179.338 4.44297C183.824 7.40496 187.286 11.3676 189.726 16.3309C192.244 21.2942 193.504 26.8179 193.504 32.902ZM181.699 32.902C181.699 29.0594 180.991 25.5371 179.574 22.3349C178.158 19.1328 176.072 16.6111 173.318 14.7699C170.642 12.8486 167.415 11.888 163.638 11.888H143.098C139.32 11.888 136.054 12.8486 133.3 14.7699C130.624 16.6111 128.539 19.1328 127.043 22.3349C125.627 25.5371 124.918 29.0594 124.918 32.902C124.918 36.7446 125.627 40.2669 127.043 43.4691C128.539 46.6712 130.624 49.2329 133.3 51.1542C136.054 53.0755 139.32 54.0362 143.098 54.0362H163.638C167.415 54.0362 170.642 53.0755 173.318 51.1542C176.072 49.2329 178.158 46.6712 179.574 43.4691C180.991 40.2669 181.699 36.7446 181.699 32.902Z" fill="white"/>
<path d="M266.196 66.0442C266.196 60.7607 265.172 55.7173 263.126 50.9141C261.159 46.0308 258.483 41.5078 255.099 37.345C251.715 33.1822 247.938 29.4197 243.767 26.0574C239.596 22.6952 235.307 19.8933 230.9 17.6518C226.571 15.4103 222.4 13.8092 218.387 12.8486V66.0442H206.582V0H212.956V0.120079C217.206 0.360241 221.692 1.32088 226.414 3.00201C231.214 4.60308 236.015 6.84458 240.815 9.72651C245.616 12.6084 250.181 15.9707 254.509 19.8133C258.916 23.6558 262.812 27.9387 266.196 32.6619V0H278V66.0442H266.196Z" fill="white"/>
<path d="M62.6479 101.376C62.6479 105.483 61.7515 109.285 59.9587 112.784C58.1659 116.282 55.7423 119.096 52.688 121.226C49.7 123.279 46.38 124.306 42.7281 124.306H15.0395V113.012H42.7281C45.5168 113.012 47.874 111.871 49.7996 109.59C51.7916 107.232 52.7876 104.494 52.7876 101.376C52.7876 98.1815 51.7916 95.4816 49.7996 93.2761C47.874 90.9945 45.5168 89.8537 42.7281 89.8537H9.86031V141.304H0V78.5597H42.7281C46.38 78.5597 49.7 79.5864 52.688 81.6399C55.7423 83.6933 58.1659 86.4693 59.9587 89.9677C61.7515 93.3902 62.6479 97.1928 62.6479 101.376Z" fill="white"/>
<path d="M134.429 141.304H124.469V124.078H86.1237V112.442H124.469V89.8537H98.5737C95.3201 89.8537 92.3653 90.7663 89.7093 92.5916C87.0533 94.4169 84.9286 96.8506 83.335 99.8927C81.7414 102.859 80.9446 106.205 80.9446 109.932V141.304H70.8851V109.932C70.8851 105.597 71.5823 101.528 72.9766 97.7252C74.4374 93.8465 76.4294 90.4621 78.9526 87.5721C81.5422 84.682 84.497 82.4384 87.8169 80.8413C91.2033 79.1681 94.7889 78.3315 98.5737 78.3315H134.429V141.304Z" fill="white"/>
<path d="M201.204 141.304H148.815V78.5597H158.775V129.896H201.204V141.304Z" fill="white"/>
<path fill-rule="evenodd" clip-rule="evenodd" d="M207.348 129.16C239.662 129.16 265.857 102.965 265.857 70.6519H278C278 109.062 245.758 141.304 207.348 141.304V129.16Z" fill="white"/>
</svg>
